<?xml version="1.0" encoding="UTF-8"?>
<!-- Generator: Adobe Illustrator 19.1.0, SVG Export Plug-In . SVG Version: 6.00 Build 0)  -->
<svg version="1.1" id="Layer_1" xmlns="http://www.w3.org/2000/svg" xmlns:xlink="http://www.w3.org/1999/xlink" x="0px" y="0px" width="160px" height="160px" viewBox="-495 281 160 160" style="enable-background:new -495 281 160 160;" xml:space="preserve">
<style type="text/css">
	.st0{fill:#5596E6;}
	.st1{fill:#FFFFFF;}
	.st2{fill:#264A60;}
</style>
<g>
	<g>
		<circle class="st0" cx="-415" cy="360.9" r="80"/>
	</g>
	<g>
		<g>
			<circle class="st1" cx="-456.1" cy="360.8" r="24.3"/>
			<path class="st2" d="M-456.1,386.3c-14,0-25.4-11.4-25.4-25.5c0-14,11.4-25.4,25.4-25.4c14,0,25.4,11.4,25.4,25.4     C-430.6,374.9-442,386.3-456.1,386.3z M-456.1,337.8c-12.7,0-23.1,10.4-23.1,23.1s10.4,23.1,23.1,23.1     c12.7,0,23.1-10.4,23.1-23.1S-443.3,337.8-456.1,337.8z"/>
		</g>
		<g>
			<path class="st2" d="M-456,372.3c-5.6,0-10.9-3.3-13.3-8.4l2.1-1c2,4.3,6.4,7,11.2,7c4.7,0,9.1-2.8,11.2-7l2.1,1     C-445.2,369-450.4,372.3-456,372.3z"/>
			<circle class="st2" cx="-463" cy="355.4" r="2.8"/>
			<circle class="st2" cx="-449" cy="355.4" r="2.8"/>
		</g>
		<rect x="-402.2" y="345.2" class="st2" width="44" height="10.5"/>
		<rect x="-402.2" y="366.3" class="st2" width="44" height="10.5"/>
		<rect x="-402.2" y="387.4" class="st1" width="44" height="10.5"/>
		<g>
			<rect x="-417.9" y="340.3" class="st2" width="5.5" height="41.1"/>
			<rect x="-432.7" y="358.1" class="st2" width="17.6" height="5.5"/>
		</g>
		<rect x="-402.2" y="324.1" class="st1" width="44" height="10.5"/>
	</g>
</g>
</svg>